<svg xmlns="http://www.w3.org/2000/svg" xmlns:xlink="http://www.w3.org/1999/xlink" width="412" zoomAndPan="magnify" viewBox="0 0 309 686.249983" height="915" preserveAspectRatio="xMidYMid meet" version="1.0"><defs><clipPath id="id1"><path d="M 0.167969 553 L 225 553 L 225 685.5 L 0.167969 685.5 Z M 0.167969 553 " clip-rule="nonzero"/></clipPath><clipPath id="id2"><path d="M 0.167969 575 L 255.917969 575 L 255.917969 685.5 L 0.167969 685.5 Z M 0.167969 575 " clip-rule="nonzero"/></clipPath></defs><g clip-path="url(#id1)"><path fill="#ff8210" d="M 206.5 655.042969 C 186.234375 641.175781 162.828125 645.816406 140.570312 641.292969 C 96.042969 632.195312 89.003906 581.375 53.546875 559.292969 C 28.320312 543.589844 12.671875 565.105469 -7.714844 571.59375 L -7.714844 691.957031 L 224.089844 691.957031 C 224.273438 678.195312 218.484375 663.242188 206.5 655.042969 Z M 206.5 655.042969 " fill-opacity="1" fill-rule="nonzero"/></g><g clip-path="url(#id2)"><path fill="#ffffff" d="M 239.292969 645.710938 C 226.222656 628.03125 206.183594 617.511719 185.691406 617.550781 C 178.214844 617.804688 170.824219 618.722656 163.515625 620.304688 C 158.714844 621.1875 153.742188 622.113281 148.839844 622.625 C 124.0625 625.171875 98.457031 616.957031 78.585938 600.109375 C 76.1875 598.066406 73.8125 595.851562 71.503906 593.714844 C 65.648438 588.285156 59.636719 582.652344 52.492188 579.214844 C 50.875 578.441406 49.214844 577.785156 47.507812 577.242188 C 45.800781 576.699219 44.066406 576.277344 42.300781 575.976562 C 40.535156 575.675781 38.757812 575.496094 36.96875 575.441406 C 35.179688 575.386719 33.394531 575.457031 31.613281 575.648438 C 29.832031 575.84375 28.074219 576.15625 26.339844 576.59375 C 24.601562 577.03125 22.902344 577.585938 21.246094 578.257812 C 19.585938 578.929688 17.980469 579.714844 16.429688 580.609375 C 14.878906 581.503906 13.398438 582.503906 11.984375 583.601562 C -0.910156 593.636719 -3.585938 608.546875 -6.171875 622.957031 C -6.671875 625.738281 -7.171875 628.53125 -7.753906 631.328125 L -7.753906 639.683594 C -6.304688 634.285156 -5.128906 628.828125 -4.234375 623.3125 C -1.597656 608.613281 0.894531 594.730469 13.199219 585.160156 C 14.539062 584.109375 15.941406 583.160156 17.414062 582.308594 C 18.886719 581.457031 20.410156 580.707031 21.984375 580.066406 C 23.558594 579.425781 25.171875 578.898438 26.820312 578.480469 C 28.46875 578.0625 30.136719 577.761719 31.828125 577.574219 C 33.519531 577.390625 35.214844 577.324219 36.914062 577.371094 C 38.613281 577.421875 40.300781 577.589844 41.980469 577.875 C 43.65625 578.160156 45.304688 578.558594 46.925781 579.070312 C 48.546875 579.585938 50.125 580.207031 51.660156 580.941406 C 58.515625 584.300781 64.449219 589.8125 70.199219 595.152344 C 72.519531 597.3125 74.917969 599.542969 77.359375 601.613281 C 97.625 618.75 123.773438 627.1875 149.074219 624.578125 C 154.058594 624.0625 159.070312 623.140625 163.910156 622.230469 C 171.054688 620.914062 178.414062 619.59375 185.746094 619.59375 C 205.601562 619.59375 225.050781 629.769531 237.75 646.9375 C 245.160156 656.941406 251.199219 673.976562 253.941406 691.957031 L 255.917969 691.957031 C 253.164062 673.566406 246.953125 656.058594 239.292969 645.710938 Z M 239.292969 645.710938 " fill-opacity="1" fill-rule="nonzero"/></g></svg>